<?xml version="1.0" standalone="no"?>
<!DOCTYPE svg PUBLIC "-//W3C//DTD SVG 20010904//EN"
 "http://www.w3.org/TR/2001/REC-SVG-20010904/DTD/svg10.dtd">
<svg version="1.0" xmlns="http://www.w3.org/2000/svg"
 width="600.000000pt" height="500.000000pt" viewBox="0 0 600.000000 500.000000"
 preserveAspectRatio="xMidYMid meet">

<g transform="translate(0.000000,500.000000) scale(0.100000,-0.100000)"
fill="#000000" stroke="none">
<path d="M3693 3702 c-122 -64 -217 -120 -210 -123 7 -4 34 -10 61 -14 101
-14 115 11 -190 -351 -152 -181 -280 -328 -283 -327 -3 1 -50 27 -103 58 -54
31 -104 55 -112 53 -8 -2 -121 -130 -250 -285 -130 -156 -241 -283 -246 -283
-5 0 -45 23 -88 50 -43 28 -88 50 -100 50 -15 0 -68 -55 -187 -196 -160 -189
-185 -230 -154 -249 26 -17 64 17 199 180 80 96 148 175 152 175 4 0 46 -25
94 -55 49 -30 93 -55 100 -55 7 0 121 131 254 290 133 160 245 288 248 287 4
-2 51 -30 105 -62 l98 -58 25 19 c13 10 150 169 303 352 154 183 283 334 287
335 4 1 21 -35 37 -81 17 -45 31 -81 33 -79 7 7 154 472 151 479 -1 4 -102
-46 -224 -110z"/>
<path d="M1964 1236 c-3 -8 -4 -23 -2 -33 3 -17 50 -18 1108 -18 l1105 0 0 30
0 30 -1103 3 c-954 2 -1103 0 -1108 -12z"/>
</g>
</svg>
