<?xml version="1.0" standalone="no"?>
<!DOCTYPE svg PUBLIC "-//W3C//DTD SVG 20010904//EN"
 "http://www.w3.org/TR/2001/REC-SVG-20010904/DTD/svg10.dtd">
<svg version="1.0" xmlns="http://www.w3.org/2000/svg"
 width="600.000000pt" height="500.000000pt" viewBox="0 0 600.000000 500.000000"
 preserveAspectRatio="xMidYMid meet">

<g transform="translate(0.000000,500.000000) scale(0.100000,-0.100000)"
fill="#000000" stroke="none">
<path d="M3154 3860 c-80 -25 -111 -110 -58 -164 28 -27 79 -46 127 -46 l27 0
0 -120 0 -120 110 0 110 0 0 120 0 120 38 0 c59 1 120 33 138 75 12 30 12 39
0 69 -26 63 -56 71 -271 73 -104 1 -204 -2 -221 -7z"/>
<path d="M4185 3555 c-38 -37 -34 -90 11 -156 l35 -53 -69 -70 c-106 -110
-105 -93 -15 -180 l78 -75 87 87 87 86 23 -22 c29 -26 89 -52 123 -52 16 0 38
12 56 29 35 35 38 75 10 129 -21 42 -229 249 -282 281 -49 30 -113 28 -144 -4z"/>
<path d="M3185 3206 c-199 -39 -353 -122 -500 -270 -124 -125 -208 -276 -252
-452 -26 -106 -23 -314 5 -428 71 -284 256 -508 525 -637 431 -206 969 -38
1215 379 182 310 173 695 -25 996 -58 88 -177 208 -263 266 -72 49 -206 110
-296 135 -81 22 -317 29 -409 11z m435 -124 c255 -84 446 -269 539 -522 168
-461 -102 -971 -585 -1101 -108 -30 -317 -32 -419 -5 -307 81 -534 308 -617
618 -31 118 -31 299 2 418 71 262 261 477 503 571 128 49 187 59 342 55 125
-3 150 -7 235 -34z"/>
<path d="M2674 1905 c-15 -23 -15 -27 9 -67 38 -64 131 -163 202 -213 143
-102 290 -147 483 -146 125 0 162 12 162 54 0 42 -17 47 -146 47 -153 0 -245
18 -351 70 -95 47 -183 123 -250 217 -50 71 -80 82 -109 38z"/>
<path d="M1472 2838 c-14 -14 -15 -47 -2 -68 8 -13 62 -15 367 -18 197 -2 368
0 381 3 12 3 28 17 34 30 9 21 8 28 -7 45 -17 19 -31 20 -390 20 -275 0 -374
-3 -383 -12z"/>
<path d="M1330 2561 c-16 -30 -12 -48 12 -65 19 -14 72 -16 379 -16 335 0 358
1 380 19 20 16 22 23 14 47 l-10 29 -382 3 c-370 2 -383 2 -393 -17z"/>
<path d="M1217 2282 c-22 -24 -21 -45 1 -65 17 -15 60 -17 408 -17 290 0 393
3 402 12 15 15 15 61 0 76 -9 9 -112 12 -403 12 -367 0 -393 -1 -408 -18z"/>
<path d="M1240 1981 c-14 -28 -13 -38 10 -61 19 -19 33 -20 416 -20 253 0 402
4 415 10 22 12 26 59 7 78 -9 9 -117 12 -425 12 -397 0 -413 -1 -423 -19z"/>
<path d="M1472 1718 c-14 -14 -15 -47 -2 -68 8 -13 62 -15 367 -18 197 -2 368
0 381 3 12 3 28 17 34 30 9 21 8 28 -7 45 -17 19 -31 20 -390 20 -275 0 -374
-3 -383 -12z"/>
</g>
</svg>
