<?xml version="1.0" standalone="no"?>
<!DOCTYPE svg PUBLIC "-//W3C//DTD SVG 20010904//EN"
 "http://www.w3.org/TR/2001/REC-SVG-20010904/DTD/svg10.dtd">
<svg version="1.0" xmlns="http://www.w3.org/2000/svg"
 width="600.000000pt" height="500.000000pt" viewBox="0 0 600.000000 500.000000"
 preserveAspectRatio="xMidYMid meet">

<g transform="translate(0.000000,500.000000) scale(0.100000,-0.100000)"
fill="#000000" stroke="none">
<path d="M2862 3939 c-372 -36 -661 -253 -792 -592 -58 -148 -74 -236 -74
-407 -1 -131 3 -169 22 -247 23 -89 44 -134 56 -122 4 3 -1 26 -9 50 -50 140
-64 378 -31 526 93 422 359 689 752 758 179 31 393 12 557 -50 50 -18 94 -32
97 -29 11 11 -37 35 -125 63 -147 47 -307 65 -453 50z"/>
<path d="M3352 3690 c2 -6 30 -22 63 -35 153 -63 272 -189 320 -341 9 -30 21
-54 27 -54 16 0 -1 60 -39 140 -50 103 -150 203 -253 253 -90 43 -124 54 -118
37z"/>
<path d="M2703 2965 c-104 -45 -143 -230 -77 -361 22 -44 25 -56 14 -69 -23
-27 -82 -58 -116 -60 -36 -2 -49 -18 -20 -23 38 -8 86 10 129 48 37 33 47 37
56 26 6 -8 35 -24 63 -36 40 -17 66 -21 128 -19 72 3 80 1 115 -26 21 -15 54
-34 74 -41 76 -27 183 -10 245 39 l28 23 55 -19 c59 -19 114 -20 120 -1 3 8
-19 13 -62 16 -87 5 -94 14 -55 74 61 97 85 261 48 330 -67 123 -230 -6 -230
-181 -1 -70 26 -132 75 -178 l31 -29 -24 -19 c-29 -22 -111 -49 -150 -49 -15
0 -42 5 -61 11 -36 12 -99 55 -99 67 0 4 19 18 41 32 80 49 133 167 134 298 0
69 -2 75 -28 98 -66 57 -155 17 -209 -93 -30 -61 -33 -76 -33 -153 0 -69 5
-93 23 -127 l22 -43 -26 -6 c-46 -12 -133 3 -179 31 -25 14 -45 28 -45 30 0 3
18 39 39 82 21 43 48 108 60 146 34 112 30 165 -15 185 -31 15 -31 15 -71 -3z
m75 -27 c16 -16 15 -48 -4 -122 -19 -75 -89 -226 -104 -226 -6 0 -21 21 -32
48 -41 92 -19 225 48 287 29 27 72 33 92 13z m338 -33 c29 -20 36 -66 23 -144
-20 -115 -72 -201 -142 -238 -28 -14 -31 -14 -44 3 -27 37 -45 122 -38 177 20
149 126 255 201 202z m304 -42 c44 -56 12 -257 -54 -338 l-24 -30 -32 30 c-90
84 -93 223 -7 321 47 54 84 59 117 17z"/>
<path d="M3989 2815 c-4 -5 -12 -44 -18 -85 -32 -208 -125 -355 -272 -434
-121 -65 -187 -115 -207 -159 -23 -48 -26 -85 -24 -314 2 -134 5 -163 16 -163
12 0 14 30 9 188 -9 289 -2 303 184 407 168 94 256 209 304 402 18 74 24 183
8 158z"/>
<path d="M2479 1898 c0 -18 -4 -72 -7 -120 -5 -64 -4 -88 4 -88 11 0 17 45 26
194 2 24 -2 41 -10 44 -8 2 -12 -8 -13 -30z"/>
<path d="M2370 1501 c0 -5 7 -28 16 -52 20 -57 13 -108 -26 -190 -16 -35 -30
-72 -30 -81 0 -27 47 -75 92 -93 154 -62 912 -59 1053 4 62 27 99 87 99 156 0
44 -6 63 -38 115 -24 38 -41 79 -44 107 -6 58 -27 50 -26 -10 0 -35 9 -58 38
-102 48 -73 54 -109 28 -168 -28 -64 -72 -84 -225 -104 -216 -28 -708 -18
-849 18 -46 12 -98 54 -98 80 0 11 14 46 30 79 17 33 30 68 30 79 0 11 4 22 9
26 5 3 65 -6 133 -19 186 -38 354 -49 530 -36 82 6 155 13 164 17 21 8 11 29
-12 25 -71 -11 -424 -13 -514 -3 -124 14 -280 48 -296 65 -6 6 -16 30 -23 54
-7 25 -18 42 -26 42 -8 0 -15 -4 -15 -9z"/>
</g>
</svg>
